<?xml version="1.0" encoding="UTF-8"?>
<svg version="1.1" xmlns="http://www.w3.org/2000/svg" width="400" height="400">
<path d="M0 0 C132 0 264 0 400 0 C400 132 400 264 400 400 C268 400 136 400 0 400 C0 268 0 136 0 0 Z " fill="#4B4B4A" transform="translate(0,0)"/>
<path d="M0 0 C8.91 0 17.82 0 27 0 C27 4.29 27 8.58 27 13 C18.42 13 9.84 13 1 13 C1 17.62 1 22.24 1 27 C-3.62 27 -8.24 27 -13 27 C-13 31.29 -13 35.58 -13 40 C-17.29 40 -21.58 40 -26 40 C-26 48.91 -26 57.82 -26 67 C-22.04 67 -18.08 67 -14 67 C-14 62.38 -14 57.76 -14 53 C-0.47 53 13.06 53 27 53 C27 57.62 27 62.24 27 67 C31.29 67 35.58 67 40 67 C40 71.29 40 75.58 40 80 C48.91 80 57.82 80 67 80 C67 75.71 67 71.42 67 67 C89.11 67 111.22 67 134 67 C134 62.38 134 57.76 134 53 C138.29 53 142.58 53 147 53 C147 44.42 147 35.84 147 27 C142.71 27 138.42 27 134 27 C134 22.38 134 17.76 134 13 C142.91 13 151.82 13 161 13 C161 17.62 161 22.24 161 27 C165.29 27 169.58 27 174 27 C174 35.58 174 44.16 174 53 C169.71 53 165.42 53 161 53 C161 57.62 161 62.24 161 67 C165.29 67 169.58 67 174 67 C174 71.29 174 75.58 174 80 C182.91 80 191.82 80 201 80 C201 84.62 201 89.24 201 94 C204.96 94 208.92 94 213 94 C213 98.29 213 102.58 213 107 C217.95 107 222.9 107 228 107 C228 115.58 228 124.16 228 133 C231.96 133 235.92 133 240 133 C241.86687577 134.86687577 241.12006498 137.54281448 241.12442017 140.02632141 C241.12082489 140.89234482 241.11722961 141.75836823 241.11352539 142.65063477 C241.11367142 143.55786285 241.11381744 144.46509094 241.1139679 145.39981079 C241.11326841 148.41369985 241.10547434 151.42752793 241.09765625 154.44140625 C241.0957922 156.52505967 241.09436824 158.60871354 241.09336853 160.69236755 C241.08954234 166.18823446 241.0797112 171.68407513 241.06866455 177.17993164 C241.0584526 182.78336227 241.05387137 188.38679713 241.04882812 193.99023438 C241.03808902 204.99350114 241.02101139 215.99674839 241 227 C236.38 227 231.76 227 227 227 C227 235.58 227 244.16 227 253 C169.58 253 112.16 253 53 253 C53 249.04 53 245.08 53 241 C30.89 241 8.78 241 -14 241 C-14 236.71 -14 232.42 -14 228 C-17.96 228 -21.92 228 -26 228 C-25.98839844 229.79308594 -25.97679687 231.58617187 -25.96484375 233.43359375 C-25.95546771 235.76822813 -25.94636731 238.10286363 -25.9375 240.4375 C-25.92912109 241.62150391 -25.92074219 242.80550781 -25.91210938 244.02539062 C-25.90888672 245.15009766 -25.90566406 246.27480469 -25.90234375 247.43359375 C-25.89710693 248.47572021 -25.89187012 249.51784668 -25.88647461 250.59155273 C-26 253 -26 253 -27 254 C-31.29 254 -35.58 254 -40 254 C-40 245.42 -40 236.84 -40 228 C-44.62 228 -49.24 228 -54 228 C-54 219.09 -54 210.18 -54 201 C-58.29 201 -62.58 201 -67 201 C-67 169.98 -67 138.96 -67 107 C-62.71 107 -58.42 107 -54 107 C-54 93.8 -54 80.6 -54 67 C-49.38 67 -44.76 67 -40 67 C-40 58.09 -40 49.18 -40 40 C-35.71 40 -31.42 40 -27 40 C-27 35.71 -27 31.42 -27 27 C-22.71 27 -18.42 27 -14 27 C-14 22.38 -14 17.76 -14 13 C-9.38 13 -4.76 13 0 13 C0 8.71 0 4.42 0 0 Z " fill="#79DD1C" transform="translate(94,47)"/>
<path d="M0 0 C132 0 264 0 400 0 C400 92.4 400 184.8 400 280 C396.04 280 392.08 280 388 280 C387.67 284.29 387.34 288.58 387 293 C382.71 293.33 378.42 293.66 374 294 C374 297.63 374 301.26 374 305 C369.41989331 306.46563414 365.85802884 307.11009697 361 307 C361.01160156 307.85464844 361.02320313 308.70929688 361.03515625 309.58984375 C361.04869141 311.24693359 361.04869141 311.24693359 361.0625 312.9375 C361.07410156 314.03964844 361.08570313 315.14179688 361.09765625 316.27734375 C361 319 361 319 360 320 C358.14712498 320.07226502 356.29166122 320.0838122 354.4375 320.0625 C353.42558594 320.05347656 352.41367187 320.04445313 351.37109375 320.03515625 C350.19740234 320.01775391 350.19740234 320.01775391 349 320 C347.78010313 313.90051567 348.04313434 308.14520393 349 302 C351.6003975 299.3996025 358.41298305 300.26430651 362 300 C361.99214478 298.91730835 361.99214478 298.91730835 361.98413086 297.81274414 C361.96342642 294.56267151 361.95036082 291.31261272 361.9375 288.0625 C361.92912109 286.92619141 361.92074219 285.78988281 361.91210938 284.61914062 C361.90727539 282.99975586 361.90727539 282.99975586 361.90234375 281.34765625 C361.89448853 279.84730835 361.89448853 279.84730835 361.88647461 278.31665039 C362 276 362 276 363 275 C365.01964199 274.92755947 367.04167124 274.91622812 369.0625 274.9375 C370.16722656 274.94652344 371.27195312 274.95554687 372.41015625 274.96484375 C373.69212891 274.98224609 373.69212891 274.98224609 375 275 C374.98952637 274.32420898 374.97905273 273.64841797 374.96826172 272.95214844 C374.92664024 269.88480358 374.90065427 266.81751822 374.875 263.75 C374.85824219 262.68652344 374.84148437 261.62304688 374.82421875 260.52734375 C374.81777344 259.50253906 374.81132812 258.47773438 374.8046875 257.421875 C374.79421387 256.47924805 374.78374023 255.53662109 374.77294922 254.56542969 C375 252 375 252 377 248 C380.96 248 384.92 248 389 248 C389 216.65 389 185.3 389 153 C384.71 153 380.42 153 376 153 C375 152 375 152 374.88647461 148.30639648 C374.88663376 146.66128708 374.89233012 145.01617269 374.90234375 143.37109375 C374.90446617 142.07474754 374.90446617 142.07474754 374.90663147 140.75221252 C374.91224761 137.98060708 374.92480281 135.2090812 374.9375 132.4375 C374.94251292 130.5631522 374.94707619 128.68880315 374.95117188 126.81445312 C374.96222228 122.20960456 374.9794977 117.60481579 375 113 C370.71 113 366.42 113 362 113 C361.67 104.09 361.34 95.18 361 86 C357.37 86 353.74 86 350 86 C347.73293933 83.73293933 348.25590776 77.88810189 348 75 C343.71 74.67 339.42 74.34 335 74 C335 78.29 335 82.58 335 87 C338.96 87 342.92 87 347 87 C347 95.91 347 104.82 347 114 C342.71 114 338.42 114 334 114 C334 105.42 334 96.84 334 88 C330.04 88 326.08 88 322 88 C321 87 321 87 320.90234375 84.05859375 C320.93489583 80.70572917 320.96744792 77.35286458 321 74 C316.38 74 311.76 74 307 74 C307 69.71 307 65.42 307 61 C305.13472656 61.01160156 303.26945312 61.02320313 301.34765625 61.03515625 C298.91927183 61.04453225 296.49088633 61.05363265 294.0625 61.0625 C292.21495117 61.07506836 292.21495117 61.07506836 290.33007812 61.08789062 C289.16025391 61.09111328 287.99042969 61.09433594 286.78515625 61.09765625 C285.15912476 61.10551147 285.15912476 61.10551147 283.50024414 61.11352539 C281 61 281 61 280 60 C279.92755947 57.98035801 279.91622812 55.95832876 279.9375 53.9375 C279.94652344 52.83277344 279.95554687 51.72804687 279.96484375 50.58984375 C279.98224609 49.30787109 279.98224609 49.30787109 280 48 C279.32122803 48.00523682 278.64245605 48.01047363 277.94311523 48.01586914 C265.24068682 48.10080286 252.66162408 48.06624203 240 47 C240 42.38 240 37.76 240 33 C253.53 33 267.06 33 281 33 C281 28.71 281 24.42 281 20 C267.8 20 254.6 20 241 20 C241 15.71 241 11.42 241 7 C214.6 7 188.2 7 161 7 C161 11.29 161 15.58 161 20 C147.8 20 134.6 20 121 20 C121 24.29 121 28.58 121 33 C112.09 33 103.18 33 94 33 C94 41.91 94 50.82 94 60 C89.38 60 84.76 60 80 60 C80 64.62 80 69.24 80 74 C75.71 74 71.42 74 67 74 C67 78.29 67 82.58 67 87 C62.71 87 58.42 87 54 87 C54 95.91 54 104.82 54 114 C49.38 114 44.76 114 40 114 C40 127.2 40 140.4 40 154 C35.71 154 31.42 154 27 154 C27 185.02 27 216.04 27 248 C31.29 248 35.58 248 40 248 C40 256.91 40 265.82 40 275 C44.62 275 49.24 275 54 275 C54 288.2 54 301.4 54 315 C58.29 315 62.58 315 67 315 C67 319.29 67 323.58 67 328 C71.29 328 75.58 328 80 328 C80 332.62 80 337.24 80 342 C84.62 342 89.24 342 94 342 C94 346.29 94 350.58 94 355 C98.29 355 102.58 355 107 355 C107 358.96 107 362.92 107 367 C102.71 367 98.42 367 94 367 C94 371.62 94 376.24 94 381 C89.38 381 84.76 381 80 381 C80 387.27 80 393.54 80 400 C53.6 400 27.2 400 0 400 C0 268 0 136 0 0 Z " fill="#2B5D8E" transform="translate(0,0)"/>
<path d="M0 0 C26.4 0 52.8 0 80 0 C80 4.29 80 8.58 80 13 C93.2 13 106.4 13 120 13 C120 17.29 120 21.58 120 26 C106.47 26 92.94 26 79 26 C79 30.62 79 35.24 79 40 C75.04 40 71.08 40 67 40 C67 43.96 67 47.92 67 52 C75.58 52 84.16 52 93 52 C93 52.33 93 52.66 93 53 C84.42 53 75.84 53 67 53 C67 57.62 67 62.24 67 67 C71.29 67 75.58 67 80 67 C80 75.58 80 84.16 80 93 C75.71 93 71.42 93 67 93 C67 97.62 67 102.24 67 107 C44.89 107 22.78 107 0 107 C0 111.29 0 115.58 0 120 C-8.91 120 -17.82 120 -27 120 C-27 115.71 -27 111.42 -27 107 C-31.29 107 -35.58 107 -40 107 C-40 102.38 -40 97.76 -40 93 C-53.53 93 -67.06 93 -81 93 C-81 97.62 -81 102.24 -81 107 C-84.96 107 -88.92 107 -93 107 C-93 98.09 -93 89.18 -93 80 C-88.71 80 -84.42 80 -80 80 C-80 75.71 -80 71.42 -80 67 C-75.38 67 -70.76 67 -66 67 C-66 62.38 -66 57.76 -66 53 C-57.42 53 -48.84 53 -40 53 C-40 48.71 -40 44.42 -40 40 C-48.91 40 -57.82 40 -67 40 C-67 35.38 -67 30.76 -67 26 C-58.09 26 -49.18 26 -40 26 C-40 21.71 -40 17.42 -40 13 C-26.8 13 -13.6 13 0 13 C0 8.71 0 4.42 0 0 Z " fill="#292A28" transform="translate(161,7)"/>
<path d="M0 0 C4.29 0 8.58 0 13 0 C13 0.33 13 0.66 13 1 C9.04 1 5.08 1 1 1 C1 4.96 1 8.92 1 13 C5.29 13 9.58 13 14 13 C14 11.35 14 9.7 14 8 C17.96 8 21.92 8 26 8 C26.33 11.96 26.66 15.92 27 20 C31.29 20.33 35.58 20.66 40 21 C40 29.58 40 38.16 40 47 C44.29 47 48.58 47 53 47 C53 59.87 53 72.74 53 86 C-4.09 86 -61.18 86 -120 86 C-120 79.73 -120 73.46 -120 67 C-124.29 67 -128.58 67 -133 67 C-133 62.38 -133 57.76 -133 53 C-137.62 53 -142.24 53 -147 53 C-147 48.71 -147 44.42 -147 40 C-133.8 40 -120.6 40 -107 40 C-107 31.09 -107 22.18 -107 13 C-93.47 13 -79.94 13 -66 13 C-66 17.62 -66 22.24 -66 27 C-48.84 27 -31.68 27 -14 27 C-14 22.38 -14 17.76 -14 13 C-9.38 13 -4.76 13 0 13 C0 8.71 0 4.42 0 0 Z " fill="#2E2E2B" transform="translate(321,314)"/>
<path d="M0 0 C8.91 0 17.82 0 27 0 C27 4.29 27 8.58 27 13 C18.42 13 9.84 13 1 13 C1 17.62 1 22.24 1 27 C-3.62 27 -8.24 27 -13 27 C-13 31.29 -13 35.58 -13 40 C-17.29 40 -21.58 40 -26 40 C-26 48.91 -26 57.82 -26 67 C-22.04 67 -18.08 67 -14 67 C-14 62.38 -14 57.76 -14 53 C-0.47 53 13.06 53 27 53 C27 57.62 27 62.24 27 67 C31.29 67 35.58 67 40 67 C40 75.58 40 84.16 40 93 C35.71 93 31.42 93 27 93 C27 97.29 27 101.58 27 106 C18.09 106 9.18 106 0 106 C0 102.04 0 98.08 0 94 C-8.91 94 -17.82 94 -27 94 C-27 85.09 -27 76.18 -27 67 C-30.96 67 -34.92 67 -39 67 C-39 80.2 -39 93.4 -39 107 C-43.62 107 -48.24 107 -53 107 C-53 137.69 -53 168.38 -53 200 C-48.71 200 -44.42 200 -40 200 C-39 201 -39 201 -38.88647461 203.50024414 C-38.89171143 204.58426514 -38.89694824 205.66828613 -38.90234375 206.78515625 C-38.90556641 207.95498047 -38.90878906 209.12480469 -38.91210938 210.33007812 C-38.92048828 211.56177734 -38.92886719 212.79347656 -38.9375 214.0625 C-38.94201172 215.29806641 -38.94652344 216.53363281 -38.95117188 217.80664062 C-38.96300382 220.87111413 -38.98093992 223.93556293 -39 227 C-35.04 227 -31.08 227 -27 227 C-27 218.42 -27 209.84 -27 201 C-22.71 200.67 -18.42 200.34 -14 200 C-13.505 193.565 -13.505 193.565 -13 187 C8.78 187 30.56 187 53 187 C53 191.62 53 196.24 53 201 C57.62 201 62.24 201 67 201 C67 209.58 67 218.16 67 227 C62.38 227 57.76 227 53 227 C53 231.62 53 236.24 53 241 C30.89 241 8.78 241 -14 241 C-14 236.71 -14 232.42 -14 228 C-17.96 228 -21.92 228 -26 228 C-25.98839844 229.79308594 -25.97679687 231.58617187 -25.96484375 233.43359375 C-25.95546771 235.76822813 -25.94636731 238.10286363 -25.9375 240.4375 C-25.92912109 241.62150391 -25.92074219 242.80550781 -25.91210938 244.02539062 C-25.90888672 245.15009766 -25.90566406 246.27480469 -25.90234375 247.43359375 C-25.89710693 248.47572021 -25.89187012 249.51784668 -25.88647461 250.59155273 C-26 253 -26 253 -27 254 C-31.29 254 -35.58 254 -40 254 C-40 245.42 -40 236.84 -40 228 C-44.62 228 -49.24 228 -54 228 C-54 219.09 -54 210.18 -54 201 C-58.29 201 -62.58 201 -67 201 C-67 169.98 -67 138.96 -67 107 C-62.71 107 -58.42 107 -54 107 C-54 93.8 -54 80.6 -54 67 C-49.38 67 -44.76 67 -40 67 C-40 58.09 -40 49.18 -40 40 C-35.71 40 -31.42 40 -27 40 C-27 35.71 -27 31.42 -27 27 C-22.71 27 -18.42 27 -14 27 C-14 22.38 -14 17.76 -14 13 C-9.38 13 -4.76 13 0 13 C0 8.71 0 4.42 0 0 Z " fill="#FDAB1B" transform="translate(94,47)"/>
<path d="M0 0 C8.91 0 17.82 0 27 0 C27 4.62 27 9.24 27 14 C31.29 14 35.58 14 40 14 C40 22.58 40 31.16 40 40 C35.71 40 31.42 40 27 40 C27 44.62 27 49.24 27 54 C31.29 54 35.58 54 40 54 C40 58.29 40 62.58 40 67 C48.91 67 57.82 67 67 67 C67 71.62 67 76.24 67 81 C70.96 81 74.92 81 79 81 C79 85.29 79 89.58 79 94 C83.95 94 88.9 94 94 94 C94 102.58 94 111.16 94 120 C97.96 120 101.92 120 106 120 C107.86687577 121.86687577 107.12006498 124.54281448 107.12442017 127.02632141 C107.11902725 128.32535652 107.11902725 128.32535652 107.11352539 129.65063477 C107.11367142 130.55786285 107.11381744 131.46509094 107.1139679 132.39981079 C107.11326841 135.41369985 107.10547434 138.42752793 107.09765625 141.44140625 C107.0957922 143.52505967 107.09436824 145.60871354 107.09336853 147.69236755 C107.08954234 153.18823446 107.0797112 158.68407513 107.06866455 164.17993164 C107.0584526 169.78336227 107.05387137 175.38679713 107.04882812 180.99023438 C107.03808902 191.99350114 107.02101139 202.99674839 107 214 C102.38 214 97.76 214 93 214 C93 222.58 93 231.16 93 240 C75.51 240 58.02 240 40 240 C40 231.75 40 223.5 40 215 C44.29 215 48.58 215 53 215 C53 179.36 53 143.72 53 107 C48.71 107 44.42 107 40 107 C40 98.42 40 89.84 40 81 C35.71 81 31.42 81 27 81 C27 76.38 27 71.76 27 67 C18.09 67 9.18 67 0 67 C0 58.09 0 49.18 0 40 C4.29 40 8.58 40 13 40 C13 31.42 13 22.84 13 14 C8.71 14 4.42 14 0 14 C0 9.38 0 4.76 0 0 Z " fill="#5AA418" transform="translate(228,60)"/>
<path d="M0 0 C17.36570044 -0.12143846 34.6537654 0.16042425 52 1 C52.495 6.94 52.495 6.94 53 13 C65.87 13.495 65.87 13.495 79 14 C79 18.29 79 22.58 79 27 C83.62 27 88.24 27 93 27 C93.495 33.435 93.495 33.435 94 40 C97.96 40.33 101.92 40.66 106 41 C106 49.58 106 58.16 106 67 C110.29 67 114.58 67 119 67 C119 80.2 119 93.4 119 107 C123.62 107 128.24 107 133 107 C133 137.69 133 168.38 133 200 C128.38 200 123.76 200 119 200 C119 208.91 119 217.82 119 227 C115.04 227 111.08 227 107 227 C106.67 196.31 106.34 165.62 106 134 C102.04 133.67 98.08 133.34 94 133 C94 124.42 94 115.84 94 107 C89.05 107 84.1 107 79 107 C79 102.71 79 98.42 79 94 C75.04 94 71.08 94 67 94 C67 89.38 67 84.76 67 80 C58.09 80 49.18 80 40 80 C40 75.71 40 71.42 40 67 C35.71 67 31.42 67 27 67 C27 62.38 27 57.76 27 53 C31.29 53 35.58 53 40 53 C40 44.42 40 35.84 40 27 C35.71 27 31.42 27 27 27 C26.67 22.38 26.34 17.76 26 13 C13.13 12.505 13.13 12.505 0 12 C0 8.04 0 4.08 0 0 Z " fill="#28282A" transform="translate(228,47)"/>
<path d="M0 0 C4.62 0 9.24 0 14 0 C14 4.29 14 8.58 14 13 C18.29 13 22.58 13 27 13 C27 17.29 27 21.58 27 26 C62.64 26 98.28 26 135 26 C135 30.62 135 35.24 135 40 C143.25 40 151.5 40 160 40 C160 44.29 160 48.58 160 53 C146.8 53 133.6 53 120 53 C120 57.29 120 61.58 120 66 C124.62 66 129.24 66 134 66 C134 70.62 134 75.24 134 80 C138.29 80 142.58 80 147 80 C147 86.27 147 92.54 147 99 C107.07 99 67.14 99 26 99 C26 92.73 26 86.46 26 80 C30.62 80 35.24 80 40 80 C40 75.38 40 70.76 40 66 C44.29 66 48.58 66 53 66 C53 62.04 53 58.08 53 54 C48.71 54 44.42 54 40 54 C40 49.71 40 45.42 40 41 C35.38 41 30.76 41 26 41 C26 36.38 26 31.76 26 27 C21.71 27 17.42 27 13 27 C13 22.71 13 18.42 13 14 C8.71 14 4.42 14 0 14 C0 9.38 0 4.76 0 0 Z " fill="#161A20" transform="translate(54,301)"/>
<path d="M0 0 C10.05859375 -0.09765625 10.05859375 -0.09765625 13 0 C14.66342837 1.66342837 14.36048097 3.7825709 14.5625 6.0625 C14.68818359 7.44115234 14.68818359 7.44115234 14.81640625 8.84765625 C14.87699219 9.55792969 14.93757813 10.26820312 15 11 C15.78246094 10.98839844 16.56492187 10.97679688 17.37109375 10.96484375 C18.38300781 10.95582031 19.39492188 10.94679688 20.4375 10.9375 C21.44683594 10.92589844 22.45617187 10.91429688 23.49609375 10.90234375 C26 11 26 11 27 12 C27.08758003 13.99964982 27.10696576 16.0023611 27.09765625 18.00390625 C27.09443359 19.21884766 27.09121094 20.43378906 27.08789062 21.68554688 C27.07532227 23.60463867 27.07532227 23.60463867 27.0625 25.5625 C27.05798828 26.84576172 27.05347656 28.12902344 27.04882812 29.45117188 C27.03699555 32.6341342 27.01905944 35.81707274 27 39 C31.29 39 35.58 39 40 39 C40.80984194 43.95152495 41.1178734 48.64952275 41.09765625 53.68359375 C41.0962413 54.38396255 41.09482635 55.08433136 41.09336853 55.80592346 C41.08782477 58.01649466 41.07528326 60.22696004 41.0625 62.4375 C41.05747771 63.94726415 41.05291609 65.45702991 41.04882812 66.96679688 C41.03787387 70.64456493 41.0206489 74.32227212 41 78 C45.29 78.33 49.58 78.66 54 79 C54.80263334 89.23743668 55.15011779 99.39198003 55.1328125 109.6640625 C55.13348921 111.11363745 55.13446226 112.56321229 55.13571167 114.01278687 C55.13717048 117.02285869 55.13509284 120.03290047 55.13037109 123.04296875 C55.12466456 126.86277969 55.12797035 130.68252047 55.13394356 134.50232887 C55.13758994 137.48638418 55.13639222 140.47042337 55.13381577 143.45447922 C55.13315826 144.86160669 55.13393271 146.26873572 55.13629532 147.67586136 C55.14787197 156.49988863 54.81706061 165.2126675 54 174 C51.15105645 174.75397865 48.70234746 175.11170579 45.75 175.0625 C43.89375 175.0315625 43.89375 175.0315625 42 175 C41.02084938 177.93745187 40.89589407 179.76328201 40.9375 182.81640625 C40.94910156 184.20956055 40.94910156 184.20956055 40.9609375 185.63085938 C40.97382813 186.59830078 40.98671875 187.56574219 41 188.5625 C41.02545339 190.480413 41.04650543 192.39839104 41.0625 194.31640625 C41.07410156 195.16662354 41.08570313 196.01684082 41.09765625 196.89282227 C41 199 41 199 40 201 C36.02286723 201.60484372 32.01306971 201.74654297 28 202 C28.00523682 202.72179443 28.01047363 203.44358887 28.01586914 204.18725586 C28.03657358 207.43732849 28.04963918 210.68738728 28.0625 213.9375 C28.07087891 215.07380859 28.07925781 216.21011719 28.08789062 217.38085938 C28.09111328 218.46044922 28.09433594 219.54003906 28.09765625 220.65234375 C28.10289307 221.65257568 28.10812988 222.65280762 28.11352539 223.68334961 C28 226 28 226 27 227 C23.00897282 227.4638066 19.00789032 227.70468177 15 228 C14.67 233.94 14.34 239.88 14 246 C17.63 245.67 21.26 245.34 25 245 C25.33 241.04 25.66 237.08 26 233 C31.94 232.01 31.94 232.01 38 231 C38.33 227.37 38.66 223.74 39 220 C43.39436211 219.14256349 47.52572076 218.91051442 52 219 C51.98839844 218.31292969 51.97679687 217.62585938 51.96484375 216.91796875 C51.95582031 216.01691406 51.94679688 215.11585938 51.9375 214.1875 C51.92589844 213.29417969 51.91429687 212.40085937 51.90234375 211.48046875 C52 209 52 209 53 206 C56.96 206 60.92 206 65 206 C65 245.6 65 285.2 65 326 C56.42 326 47.84 326 39 326 C39 313.13 39 300.26 39 287 C34.71 287 30.42 287 26 287 C26 278.42 26 269.84 26 261 C21.71 261 17.42 261 13 261 C12 260 12 260 11.90234375 257.27734375 C11.93489583 254.18489583 11.96744792 251.09244792 12 248 C8.04 248 4.08 248 0 248 C0 249.65 0 251.3 0 253 C-4.29 253 -8.58 253 -13 253 C-13 249.04 -13 245.08 -13 241 C-9.04 240.67 -5.08 240.34 -1 240 C-0.67 235.71 -0.34 231.42 0 227 C3.96 226.67 7.92 226.34 12 226 C12.33 217.75 12.66 209.5 13 201 C17.29 200.67 21.58 200.34 26 200 C26.33 191.42 26.66 182.84 27 174 C30.96 174 34.92 174 39 174 C39 142.98 39 111.96 39 80 C35.04 80 31.08 80 27 80 C27 66.8 27 53.6 27 40 C22.05 40 17.1 40 12 40 C12 31.09 12 22.18 12 13 C8.04 13 4.08 13 0 13 C0 8.71 0 4.42 0 0 Z " fill="#1C2227" transform="translate(335,74)"/>
<path d="M0 0 C3.96 0 7.92 0 12 0 C12 8.91 12 17.82 12 27 C16.29 27 20.58 27 25 27 C25 31.29 25 35.58 25 40 C33.91 40 42.82 40 52 40 C52 44.29 52 48.58 52 53 C48.04 53 44.08 53 40 53 C40 57.62 40 62.24 40 67 C43.96 67 47.92 67 52 67 C52 75.58 52 84.16 52 93 C48.04 93 44.08 93 40 93 C40 88.71 40 84.42 40 80 C35.05 80 30.1 80 25 80 C25 97.82 25 115.64 25 134 C20.71 134 16.42 134 12 134 C12 142.58 12 151.16 12 160 C8.04 160 4.08 160 0 160 C-0.33 151.42 -0.66 142.84 -1 134 C-5.29 133.67 -9.58 133.34 -14 133 C-14 102.31 -14 71.62 -14 40 C-9.38 40 -4.76 40 0 40 C0 26.8 0 13.6 0 0 Z " fill="#2A2927" transform="translate(55,114)"/>
<path d="M0 0 C13.2 0 26.4 0 40 0 C40.495 6.435 40.495 6.435 41 13 C53.87 13.495 53.87 13.495 67 14 C67 22.58 67 31.16 67 40 C71.62 40 76.24 40 81 40 C81 46.27 81 52.54 81 59 C49.98 59 18.96 59 -13 59 C-13 52.73 -13 46.46 -13 40 C-17.29 40 -21.58 40 -26 40 C-26 35.38 -26 30.76 -26 26 C-30.62 26 -35.24 26 -40 26 C-40 21.71 -40 17.42 -40 13 C-26.8 13 -13.6 13 0 13 C0 8.71 0 4.42 0 0 Z " fill="#F06916" transform="translate(214,341)"/>
<path d="M0 0 C8.91 0 17.82 0 27 0 C27 4.29 27 8.58 27 13 C18.42 13 9.84 13 1 13 C1 17.62 1 22.24 1 27 C-3.62 27 -8.24 27 -13 27 C-13 31.29 -13 35.58 -13 40 C-17.29 40 -21.58 40 -26 40 C-26 48.91 -26 57.82 -26 67 C-22.04 67 -18.08 67 -14 67 C-14 62.38 -14 57.76 -14 53 C-0.47 53 13.06 53 27 53 C27 57.62 27 62.24 27 67 C31.29 67 35.58 67 40 67 C40 75.58 40 84.16 40 93 C35.71 93 31.42 93 27 93 C27 97.29 27 101.58 27 106 C18.09 106 9.18 106 0 106 C0 102.04 0 98.08 0 94 C-8.91 94 -17.82 94 -27 94 C-27 85.09 -27 76.18 -27 67 C-30.96 67 -34.92 67 -39 67 C-39 80.2 -39 93.4 -39 107 C-43.95 107 -48.9 107 -54 107 C-54 93.8 -54 80.6 -54 67 C-49.38 67 -44.76 67 -40 67 C-40 58.09 -40 49.18 -40 40 C-35.71 40 -31.42 40 -27 40 C-27 35.71 -27 31.42 -27 27 C-22.71 27 -18.42 27 -14 27 C-14 22.38 -14 17.76 -14 13 C-9.38 13 -4.76 13 0 13 C0 8.71 0 4.42 0 0 Z " fill="#FDFDFA" transform="translate(94,47)"/>
<path d="M0 0 C10.05859375 -0.09765625 10.05859375 -0.09765625 13 0 C14.66342837 1.66342837 14.36048097 3.7825709 14.5625 6.0625 C14.68818359 7.44115234 14.68818359 7.44115234 14.81640625 8.84765625 C14.87699219 9.55792969 14.93757813 10.26820312 15 11 C15.78246094 10.98839844 16.56492187 10.97679688 17.37109375 10.96484375 C18.38300781 10.95582031 19.39492188 10.94679688 20.4375 10.9375 C21.44683594 10.92589844 22.45617187 10.91429688 23.49609375 10.90234375 C26 11 26 11 27 12 C27.08758003 13.99964982 27.10696576 16.0023611 27.09765625 18.00390625 C27.09443359 19.21884766 27.09121094 20.43378906 27.08789062 21.68554688 C27.07532227 23.60463867 27.07532227 23.60463867 27.0625 25.5625 C27.05798828 26.84576172 27.05347656 28.12902344 27.04882812 29.45117188 C27.03699555 32.6341342 27.01905944 35.81707274 27 39 C31.29 39 35.58 39 40 39 C40.80984194 43.95152495 41.1178734 48.64952275 41.09765625 53.68359375 C41.0962413 54.38396255 41.09482635 55.08433136 41.09336853 55.80592346 C41.08782477 58.01649466 41.07528326 60.22696004 41.0625 62.4375 C41.05747771 63.94726415 41.05291609 65.45702991 41.04882812 66.96679688 C41.03787387 70.64456493 41.0206489 74.32227212 41 78 C45.29 78.33 49.58 78.66 54 79 C54.80263334 89.23743668 55.15011779 99.39198003 55.1328125 109.6640625 C55.13348921 111.11363745 55.13446226 112.56321229 55.13571167 114.01278687 C55.13717048 117.02285869 55.13509284 120.03290047 55.13037109 123.04296875 C55.12466456 126.86277969 55.12797035 130.68252047 55.13394356 134.50232887 C55.13758994 137.48638418 55.13639222 140.47042337 55.13381577 143.45447922 C55.13315826 144.86160669 55.13393271 146.26873572 55.13629532 147.67586136 C55.14787197 156.49988863 54.81706061 165.2126675 54 174 C51.15105645 174.75397865 48.70234746 175.11170579 45.75 175.0625 C43.89375 175.0315625 43.89375 175.0315625 42 175 C41.02084938 177.93745187 40.89589407 179.76328201 40.9375 182.81640625 C40.94910156 184.20956055 40.94910156 184.20956055 40.9609375 185.63085938 C40.97382813 186.59830078 40.98671875 187.56574219 41 188.5625 C41.02545339 190.480413 41.04650543 192.39839104 41.0625 194.31640625 C41.07410156 195.16662354 41.08570313 196.01684082 41.09765625 196.89282227 C41 199 41 199 40 201 C36.02286723 201.60484372 32.01306971 201.74654297 28 202 C28.00523682 202.72179443 28.01047363 203.44358887 28.01586914 204.18725586 C28.03657358 207.43732849 28.04963918 210.68738728 28.0625 213.9375 C28.07087891 215.07380859 28.07925781 216.21011719 28.08789062 217.38085938 C28.09111328 218.46044922 28.09433594 219.54003906 28.09765625 220.65234375 C28.10289307 221.65257568 28.10812988 222.65280762 28.11352539 223.68334961 C28 226 28 226 27 227 C24.98405418 227.23427778 22.961526 227.41336124 20.9375 227.5625 C19.83277344 227.64628906 18.72804688 227.73007812 17.58984375 227.81640625 C16.73519531 227.87699219 15.88054687 227.93757812 15 228 C14.93941406 228.78246094 14.87882812 229.56492187 14.81640625 230.37109375 C14.73261719 231.38300781 14.64882813 232.39492188 14.5625 233.4375 C14.48128906 234.44683594 14.40007812 235.45617187 14.31640625 236.49609375 C14 239 14 239 13 240 C12.63239269 242.32817964 12.29758419 244.6618385 12 247 C7.71 247 3.42 247 -1 247 C-1 248.98 -1 250.96 -1 253 C-4.96 253 -8.92 253 -13 253 C-13 249.04 -13 245.08 -13 241 C-9.04 240.67 -5.08 240.34 -1 240 C-0.67 235.71 -0.34 231.42 0 227 C3.96 226.67 7.92 226.34 12 226 C12.33 217.75 12.66 209.5 13 201 C17.29 200.67 21.58 200.34 26 200 C26.33 191.42 26.66 182.84 27 174 C30.96 174 34.92 174 39 174 C39 142.98 39 111.96 39 80 C35.04 80 31.08 80 27 80 C27 66.8 27 53.6 27 40 C22.05 40 17.1 40 12 40 C12 31.09 12 22.18 12 13 C8.04 13 4.08 13 0 13 C0 8.71 0 4.42 0 0 Z " fill="#21285D" transform="translate(335,74)"/>
<path d="M0 0 C9.27734375 -0.09765625 9.27734375 -0.09765625 12 0 C12.33 0.33 12.66 0.66 13 1 C15.34987262 1.23527773 17.70556039 1.41386417 20.0625 1.5625 C21.35285156 1.64628906 22.64320313 1.73007812 23.97265625 1.81640625 C25.47119141 1.90728516 25.47119141 1.90728516 27 2 C27.33 5.3 27.66 8.6 28 12 C31.96 12.33 35.92 12.66 40 13 C40.495 19.435 40.495 19.435 41 26 C44.96 26.33 48.92 26.66 53 27 C53.02682299 31.31254083 53.04675244 35.62491707 53.0625 39.9375 C53.07087891 41.16919922 53.07925781 42.40089844 53.08789062 43.66992188 C53.09111328 44.83974609 53.09433594 46.00957031 53.09765625 47.21484375 C53.10289307 48.29886475 53.10812988 49.38288574 53.11352539 50.49975586 C53 53 53 53 52 54 C47.99779347 54.14355117 44.00558317 54.04216403 40 54 C40 57.96 40 61.92 40 66 C41.86527344 65.98839844 43.73054688 65.97679688 45.65234375 65.96484375 C48.08072817 65.95546775 50.50911367 65.94636735 52.9375 65.9375 C54.16919922 65.92912109 55.40089844 65.92074219 56.66992188 65.91210938 C57.83974609 65.90888672 59.00957031 65.90566406 60.21484375 65.90234375 C61.84087524 65.89448853 61.84087524 65.89448853 63.49975586 65.88647461 C66 66 66 66 67 67 C67.14355117 71.00220653 67.04216403 74.99441683 67 79 C71.29 79 75.58 79 80 79 C80 83.62 80 88.24 80 93 C84.62 93 89.24 93 94 93 C94 97.29 94 101.58 94 106 C98.29 106 102.58 106 107 106 C107 114.91 107 123.82 107 133 C111.29 133 115.58 133 120 133 C120.02293431 141.26940655 120.04113055 149.53878683 120.05181217 157.80821705 C120.05694842 161.65137257 120.06386875 165.49450453 120.07543945 169.33764648 C120.13189848 188.58820687 119.89206317 207.76583068 119 227 C115.04 227 111.08 227 107 227 C106.67 196.31 106.34 165.62 106 134 C102.04 133.67 98.08 133.34 94 133 C94 124.42 94 115.84 94 107 C89.05 107 84.1 107 79 107 C79 102.71 79 98.42 79 94 C75.04 94 71.08 94 67 94 C67 89.38 67 84.76 67 80 C58.09 80 49.18 80 40 80 C40 75.71 40 71.42 40 67 C35.71 67 31.42 67 27 67 C27 62.38 27 57.76 27 53 C31.29 53 35.58 53 40 53 C40 44.42 40 35.84 40 27 C35.71 27 31.42 27 27 27 C26.67 22.38 26.34 17.76 26 13 C13.13 12.505 13.13 12.505 0 12 C0 8.04 0 4.08 0 0 Z " fill="#1B1F19" transform="translate(228,47)"/>
<path d="M0 0 C3.96 0 7.92 0 12 0 C12.495 5.94 12.495 5.94 13 12 C17.29 12.33 21.58 12.66 26 13 C26 21.58 26 30.16 26 39 C30.29 39 34.58 39 39 39 C39 51.87 39 64.74 39 78 C17.22 78 -4.56 78 -27 78 C-27 69.42 -27 60.84 -27 52 C-13.8 52 -0.6 52 13 52 C13 47.71 13 43.42 13 39 C4.42 39 -4.16 39 -13 39 C-13 28.11 -13 17.22 -13 6 C-7.06 5.505 -7.06 5.505 -1 5 C-0.67 3.35 -0.34 1.7 0 0 Z " fill="#374048" transform="translate(335,322)"/>
<path d="M0 0 C4.95 0 9.9 0 15 0 C15 13.2 15 26.4 15 40 C18.96 40 22.92 40 27 40 C27 71.02 27 102.04 27 134 C23.04 134 19.08 134 15 134 C15.01160156 135.86527344 15.02320313 137.73054687 15.03515625 139.65234375 C15.04453225 142.08072817 15.05363265 144.50911367 15.0625 146.9375 C15.07087891 148.16919922 15.07925781 149.40089844 15.08789062 150.66992188 C15.09272461 152.4246582 15.09272461 152.4246582 15.09765625 154.21484375 C15.10551147 155.84087524 15.10551147 155.84087524 15.11352539 157.49975586 C15 160 15 160 14 161 C11.81360547 161.07258946 9.62499611 161.08373783 7.4375 161.0625 C5.64119141 161.04896484 5.64119141 161.04896484 3.80859375 161.03515625 C2.88175781 161.02355469 1.95492188 161.01195312 1 161 C1.00523682 161.7520874 1.01047363 162.5041748 1.01586914 163.27905273 C1.03657227 166.66519342 1.04963877 170.05132084 1.0625 173.4375 C1.07087891 174.62150391 1.07925781 175.80550781 1.08789062 177.02539062 C1.09111328 178.15009766 1.09433594 179.27480469 1.09765625 180.43359375 C1.10289307 181.47572021 1.10812988 182.51784668 1.11352539 183.59155273 C1 186 1 186 0 187 C-4.00220653 187.14355117 -7.99441683 187.04216403 -12 187 C-12 191.29 -12 195.58 -12 200 C-12.33 200 -12.66 200 -13 200 C-13 186.8 -13 173.6 -13 160 C-8.71 160 -4.42 160 0 160 C0 151.09 0 142.18 0 133 C4.62 133 9.24 133 14 133 C14 102.31 14 71.62 14 40 C9.38 40 4.76 40 0 40 C0 26.8 0 13.6 0 0 Z " fill="#482E8D" transform="translate(347,114)"/>
<path d="M0 0 C8.91 0 17.82 0 27 0 C27 8.58 27 17.16 27 26 C22.38 26 17.76 26 13 26 C13 30.62 13 35.24 13 40 C17.29 40 21.58 40 26 40 C26 43.96 26 47.92 26 52 C-4.36 52 -34.72 52 -66 52 C-66 48.04 -66 44.08 -66 40 C-59.565 39.505 -59.565 39.505 -53 39 C-53 35.04 -53 31.08 -53 27 C-35.51 27 -18.02 27 0 27 C0 18.09 0 9.18 0 0 Z " fill="#000000" transform="translate(161,328)"/>
<path d="M0 0 C4.62 0 9.24 0 14 0 C14 30.69 14 61.38 14 93 C18.29 93 22.58 93 27 93 C28 94 28 94 28.11352539 96.50024414 C28.10828857 97.58426514 28.10305176 98.66828613 28.09765625 99.78515625 C28.09443359 100.95498047 28.09121094 102.12480469 28.08789062 103.33007812 C28.07951172 104.56177734 28.07113281 105.79347656 28.0625 107.0625 C28.05798828 108.29806641 28.05347656 109.53363281 28.04882812 110.80664062 C28.03699618 113.87111413 28.01906008 116.93556293 28 120 C31.96 120 35.92 120 40 120 C40 111.42 40 102.84 40 94 C40.33 94 40.66 94 41 94 C41 102.58 41 111.16 41 120 C45.29 120 49.58 120 54 120 C54 124.29 54 128.58 54 133 C75.78 133 97.56 133 120 133 C120 133.33 120 133.66 120 134 C97.89 134 75.78 134 53 134 C53 129.71 53 125.42 53 121 C49.04 121 45.08 121 41 121 C41.01160156 122.79308594 41.02320313 124.58617187 41.03515625 126.43359375 C41.04453229 128.76822813 41.05363269 131.10286363 41.0625 133.4375 C41.07087891 134.62150391 41.07925781 135.80550781 41.08789062 137.02539062 C41.09111328 138.15009766 41.09433594 139.27480469 41.09765625 140.43359375 C41.10289307 141.47572021 41.10812988 142.51784668 41.11352539 143.59155273 C41 146 41 146 40 147 C35.71 147 31.42 147 27 147 C27 138.42 27 129.84 27 121 C22.38 121 17.76 121 13 121 C13 112.09 13 103.18 13 94 C8.71 94 4.42 94 0 94 C0 62.98 0 31.96 0 0 Z " fill="#7F4817" transform="translate(27,154)"/>
<path d="M0 0 C8.91 0 17.82 0 27 0 C27 4.29 27 8.58 27 13 C18.42 13 9.84 13 1 13 C1 17.62 1 22.24 1 27 C-3.62 27 -8.24 27 -13 27 C-13 31.29 -13 35.58 -13 40 C-17.29 40 -21.58 40 -26 40 C-26 48.91 -26 57.82 -26 67 C-22.04 67 -18.08 67 -14 67 C-14 75.91 -14 84.82 -14 94 C-18.29 94 -22.58 94 -27 94 C-27 85.09 -27 76.18 -27 67 C-30.96 67 -34.92 67 -39 67 C-39 80.2 -39 93.4 -39 107 C-43.95 107 -48.9 107 -54 107 C-54 93.8 -54 80.6 -54 67 C-49.38 67 -44.76 67 -40 67 C-40 58.09 -40 49.18 -40 40 C-35.71 40 -31.42 40 -27 40 C-27 35.71 -27 31.42 -27 27 C-22.71 27 -18.42 27 -14 27 C-14 22.38 -14 17.76 -14 13 C-9.38 13 -4.76 13 0 13 C0 8.71 0 4.42 0 0 Z " fill="#95966C" transform="translate(94,47)"/>
<path d="M0 0 C27.06 0 54.12 0 82 0 C82 4.62 82 9.24 82 14 C90.25 14 98.5 14 107 14 C107 18.29 107 22.58 107 27 C98.42 27 89.84 27 81 27 C81 18.42 81 9.84 81 1 C72.09 1 63.18 1 54 1 C54 9.58 54 18.16 54 27 C36.51 27 19.02 27 1 27 C0.67 18.09 0.34 9.18 0 0 Z " fill="#313131" transform="translate(107,327)"/>
<path d="M0 0 C13.53 0 27.06 0 41 0 C41 4.62 41 9.24 41 14 C49.91 14 58.82 14 68 14 C68 18.29 68 22.58 68 27 C72.62 27 77.24 27 82 27 C82 31.62 82 36.24 82 41 C86.29 41 90.58 41 95 41 C95 45.29 95 49.58 95 54 C98.96 54 102.92 54 107 54 C107 62.91 107 71.82 107 81 C102.71 81 98.42 81 94 81 C94 72.42 94 63.84 94 55 C90.04 55 86.08 55 82 55 C81 54 81 54 80.90234375 51.05859375 C80.93489583 47.70572917 80.96744792 44.35286458 81 41 C76.38 41 71.76 41 67 41 C67 36.71 67 32.42 67 28 C64.20208984 28.01740234 64.20208984 28.01740234 61.34765625 28.03515625 C58.91927183 28.04453225 56.49088633 28.05363265 54.0625 28.0625 C52.83080078 28.07087891 51.59910156 28.07925781 50.33007812 28.08789062 C48.5753418 28.09272461 48.5753418 28.09272461 46.78515625 28.09765625 C45.15912476 28.10551147 45.15912476 28.10551147 43.50024414 28.11352539 C41 28 41 28 40 27 C39.92755947 24.98035801 39.91622812 22.95832876 39.9375 20.9375 C39.94652344 19.83277344 39.95554687 18.72804688 39.96484375 17.58984375 C39.97644531 16.73519531 39.98804688 15.88054688 40 15 C39.32122803 15.00523682 38.64245605 15.01047363 37.94311523 15.01586914 C25.24068682 15.10080286 12.66162408 15.06624203 0 14 C0 9.38 0 4.76 0 0 Z " fill="#174388" transform="translate(240,33)"/>
<path d="M0 0 C8.91 0 17.82 0 27 0 C27 4.62 27 9.24 27 14 C31.29 14 35.58 14 40 14 C40 22.58 40 31.16 40 40 C35.38 40 30.76 40 26 40 C26 44.62 26 49.24 26 54 C17.42 54 8.84 54 0 54 C0 49.38 0 44.76 0 40 C4.29 40 8.58 40 13 40 C13 31.42 13 22.84 13 14 C8.71 14 4.42 14 0 14 C0 9.38 0 4.76 0 0 Z " fill="#78DA1E" transform="translate(228,60)"/>
<path d="M0 0 C4.29 0 8.58 0 13 0 C13 31.02 13 62.04 13 94 C8.71 94 4.42 94 0 94 C0 62.98 0 31.96 0 0 Z " fill="#010002" transform="translate(14,154)"/>
<path d="M0 0 C4.29 0 8.58 0 13 0 C13 30.69 13 61.38 13 93 C8.71 93 4.42 93 0 93 C0 62.31 0 31.62 0 0 Z " fill="#000003" transform="translate(375,154)"/>
<path d="M0 0 C21.78 0 43.56 0 66 0 C66 5.94 66 11.88 66 18 C43.89 18 21.78 18 -1 18 C-0.505 9.09 -0.505 9.09 0 0 Z " fill="#4D4C4A" transform="translate(95,382)"/>
<path d="M0 0 C13.365 0.495 13.365 0.495 27 1 C27 9.58 27 18.16 27 27 C31.62 27 36.24 27 41 27 C41 33.27 41 39.54 41 46 C32.09 46 23.18 46 14 46 C14 39.73 14 33.46 14 27 C9.71 27 5.42 27 1 27 C0.67 18.09 0.34 9.18 0 0 Z " fill="#BB5619" transform="translate(254,354)"/>
<path d="M0 0 C3.96 0 7.92 0 12 0 C12 30.69 12 61.38 12 93 C8.04 93 4.08 93 0 93 C0 62.31 0 31.62 0 0 Z " fill="#7340F9" transform="translate(362,154)"/>
<path d="M0 0 C39.93 0 79.86 0 121 0 C121 6.27 121 12.54 121 19 C107.8 19 94.6 19 81 19 C81 13.06 81 7.12 81 1 C59.22 1 37.44 1 15 1 C15 4.96 15 8.92 15 13 C14.67 14.98 14.34 16.96 14 19 C9.38 19 4.76 19 0 19 C0 12.73 0 6.46 0 0 Z " fill="#353535" transform="translate(80,381)"/>
<path d="M0 0 C3.96 0 7.92 0 12 0 C12 4.29 12 8.58 12 13 C34.11 13 56.22 13 79 13 C79 16.96 79 20.92 79 25 C52.93 25 26.86 25 0 25 C0 16.75 0 8.5 0 0 Z " fill="#010000" transform="translate(68,275)"/>
<path d="M0 0 C4.62 0 9.24 0 14 0 C14 8.58 14 17.16 14 26 C7.565 26.495 7.565 26.495 1 27 C0.67 44.49 0.34 61.98 0 80 C-4.29 80 -8.58 80 -13 80 C-13.02464032 72.47029868 -13.04283141 64.94062061 -13.05493164 57.41088867 C-13.0599737 54.84708243 -13.06680714 52.28327909 -13.07543945 49.71948242 C-13.08751064 46.04344979 -13.09322942 42.36745502 -13.09765625 38.69140625 C-13.10281754 37.53725723 -13.10797882 36.38310822 -13.11329651 35.19398499 C-13.11337204 34.13296066 -13.11344757 33.07193634 -13.11352539 31.97875977 C-13.115746 31.03944107 -13.11796661 30.10012238 -13.12025452 29.13233948 C-13 27 -13 27 -12 26 C-8.04 26 -4.08 26 0 26 C0 17.42 0 8.84 0 0 Z " fill="#020201" transform="translate(80,167)"/>
<path d="M0 0 C13.2 0 26.4 0 40 0 C40 8.58 40 17.16 40 26 C26.8 26 13.6 26 0 26 C0 17.42 0 8.84 0 0 Z " fill="#FEEF00" transform="translate(308,374)"/>
<path d="M0 0 C26.4 0 52.8 0 80 0 C80 4.29 80 8.58 80 13 C53.6 13 27.2 13 0 13 C0 8.71 0 4.42 0 0 Z " fill="#010608" transform="translate(161,7)"/>
<path d="M0 0 C8.58 0 17.16 0 26 0 C26 3.96 26 7.92 26 12 C21.71 12 17.42 12 13 12 C13.33 18.93 13.66 25.86 14 33 C17.96 33 21.92 33 26 33 C27.10941367 38.32867983 27.11548069 43.46281855 27.0625 48.875 C27.05798828 49.75414062 27.05347656 50.63328125 27.04882812 51.5390625 C27.03712337 53.69273803 27.01919069 55.84637817 27 58 C22.71 58 18.42 58 14 58 C14 51.73 14 45.46 14 39 C9.38 39 4.76 39 0 39 C0 26.13 0 13.26 0 0 Z " fill="#010000" transform="translate(281,342)"/>
<path d="M0 0 C8.25 0 16.5 0 25 0 C25 12.54 25 25.08 25 38 C16.75 38 8.5 38 0 38 C0 25.46 0 12.92 0 0 Z " fill="#000000" transform="translate(375,362)"/>
<path d="M0 0 C25.74 0 51.48 0 78 0 C78 3.96 78 7.92 78 12 C52.26 12 26.52 12 0 12 C0 8.04 0 4.08 0 0 Z " fill="#42F818" transform="translate(162,21)"/>
<path d="M0 0 C0.33 0 0.66 0 1 0 C1 8.91 1 17.82 1 27 C22.78 27 44.56 27 67 27 C67 31.29 67 35.58 67 40 C45.22 40 23.44 40 1 40 C1 44.29 1 48.58 1 53 C0.67 53 0.34 53 0 53 C0 35.51 0 18.02 0 0 Z " fill="#755105" transform="translate(80,194)"/>
<path d="M0 0 C4.29 0 8.58 0 13 0 C13 10.89 13 21.78 13 33 C21.91 33 30.82 33 40 33 C40 36.96 40 40.92 40 45 C26.8 45 13.6 45 0 45 C0 30.15 0 15.3 0 0 Z " fill="#000101" transform="translate(308,328)"/>
<path d="M0 0 C21.78 0 43.56 0 66 0 C66 4.29 66 8.58 66 13 C44.22 13 22.44 13 0 13 C0 8.71 0 4.42 0 0 Z " fill="#3A5423" transform="translate(162,101)"/>
<path d="M0 0 C3.96 0 7.92 0 12 0 C12 22.11 12 44.22 12 67 C8.04 67 4.08 67 0 67 C0 44.89 0 22.78 0 0 Z " fill="#F8AB18" transform="translate(28,154)"/>
<path d="M0 0 C8.91 0 17.82 0 27 0 C27 9.24 27 18.48 27 28 C18.09 28 9.18 28 0 28 C0 18.76 0 9.52 0 0 Z " fill="#060E01" transform="translate(174,180)"/>
<path d="M0 0 C4.29 0 8.58 0 13 0 C13 4.29 13 8.58 13 13 C17.29 13 21.58 13 26 13 C26 21.58 26 30.16 26 39 C21.71 39 17.42 39 13 39 C13 34.38 13 29.76 13 25 C8.71 25 4.42 25 0 25 C0 16.75 0 8.5 0 0 Z " fill="#3A5125" transform="translate(215,61)"/>
<path d="M0 0 C8.25 0 16.5 0 25 0 C25 8.58 25 17.16 25 26 C16.75 26 8.5 26 0 26 C0 17.42 0 8.84 0 0 Z " fill="#11263C" transform="translate(375,335)"/>
<path d="M0 0 C4.29 0 8.58 0 13 0 C13 8.58 13 17.16 13 26 C9.04 26.33 5.08 26.66 1 27 C0.67 30.96 0.34 34.92 0 39 C-4.62 39 -9.24 39 -14 39 C-14 34.71 -14 30.42 -14 26 C-9.38 26 -4.76 26 0 26 C0 17.42 0 8.84 0 0 Z " fill="#775203" transform="translate(161,248)"/>
<path d="M0 0 C13.2 0 26.4 0 40 0 C40 4.29 40 8.58 40 13 C26.8 13 13.6 13 0 13 C0 8.71 0 4.42 0 0 Z " fill="#C15919" transform="translate(214,341)"/>
<path d="M0 0 C13.2 0 26.4 0 40 0 C40 4.29 40 8.58 40 13 C26.8 13 13.6 13 0 13 C0 8.71 0 4.42 0 0 Z " fill="#010609" transform="translate(241,20)"/>
<path d="M0 0 C13.2 0 26.4 0 40 0 C40 4.29 40 8.58 40 13 C26.8 13 13.6 13 0 13 C0 8.71 0 4.42 0 0 Z " fill="#010707" transform="translate(121,20)"/>
<path d="M0 0 C4.29 0 8.58 0 13 0 C13 4.29 13 8.58 13 13 C17.29 13 21.58 13 26 13 C26 21.58 26 30.16 26 39 C21.71 39 17.42 39 13 39 C12.67 30.75 12.34 22.5 12 14 C8.04 13.67 4.08 13.34 0 13 C0 8.71 0 4.42 0 0 Z " fill="#000001" transform="translate(335,74)"/>
<path d="M0 0 C4.29 0 8.58 0 13 0 C13 12.87 13 25.74 13 39 C8.71 39 4.42 39 0 39 C0 26.13 0 13.26 0 0 Z " fill="#FDFDFD" transform="translate(41,114)"/>
<path d="M0 0 C12.87 0 25.74 0 39 0 C39 4.29 39 8.58 39 13 C26.13 13 13.26 13 0 13 C0 8.71 0 4.42 0 0 Z " fill="#11C7FC" transform="translate(241,34)"/>
<path d="M0 0 C12.87 0 25.74 0 39 0 C39 4.29 39 8.58 39 13 C26.13 13 13.26 13 0 13 C0 8.71 0 4.42 0 0 Z " fill="#3CFC10" transform="translate(122,34)"/>
<path d="M0 0 C8.58 0 17.16 0 26 0 C26 8.58 26 17.16 26 26 C22.04 26 18.08 26 14 26 C14 21.71 14 17.42 14 13 C9.38 13 4.76 13 0 13 C0 8.71 0 4.42 0 0 Z " fill="#000001" transform="translate(81,328)"/>
<path d="M0 0 C4.29 0 8.58 0 13 0 C13 12.54 13 25.08 13 38 C8.71 38 4.42 38 0 38 C0 25.46 0 12.92 0 0 Z " fill="#7340F8" transform="translate(348,115)"/>
<path d="M0 0 C3.96 0 7.92 0 12 0 C12 13.2 12 26.4 12 40 C8.04 40 4.08 40 0 40 C0 26.8 0 13.6 0 0 Z " fill="#020202" transform="translate(28,114)"/>
<path d="M0 0 C8.58 0 17.16 0 26 0 C26 8.25 26 16.5 26 25 C22.04 25 18.08 25 14 25 C14 20.71 14 16.42 14 12 C9.38 12 4.76 12 0 12 C0 8.04 0 4.08 0 0 Z " fill="#F76C15" transform="translate(175,355)"/>
<path d="M0 0 C3.96 0 7.92 0 12 0 C12 12.87 12 25.74 12 39 C8.04 39 4.08 39 0 39 C0 26.13 0 13.26 0 0 Z " fill="#000004" transform="translate(362,114)"/>
<path d="M0 0 C3.63 0 7.26 0 11 0 C11 8.58 11 17.16 11 26 C2.75 26 -5.5 26 -14 26 C-14 22.04 -14 18.08 -14 14 C-7.565 13.505 -7.565 13.505 -1 13 C-0.67 8.71 -0.34 4.42 0 0 Z " fill="#000000" transform="translate(389,281)"/>
<path d="M0 0 C13.2 0 26.4 0 40 0 C40 8.91 40 17.82 40 27 C36.04 27 32.08 27 28 27 C28 33.27 28 39.54 28 46 C27.67 46 27.34 46 27 46 C27 39.73 27 33.46 27 27 C22.71 27 18.42 27 14 27 C14 22.38 14 17.76 14 13 C14.33 13 14.66 13 15 13 C15 17.29 15 21.58 15 26 C18.96 26 22.92 26 27 26 C27 17.75 27 9.5 27 1 C18.42 1 9.84 1 1 1 C1 4.96 1 8.92 1 13 C0.67 13 0.34 13 0 13 C0 8.71 0 4.42 0 0 Z " fill="#B75519" transform="translate(174,354)"/>
<path d="M0 0 C3.96 0 7.92 0 12 0 C13.33257403 13.6332574 13.33257403 13.6332574 12 20 C7.71 20 3.42 20 -1 20 C-1 21.98 -1 23.96 -1 26 C-4.96 26 -8.92 26 -13 26 C-13 22.04 -13 18.08 -13 14 C-7.06 13.505 -7.06 13.505 -1 13 C-0.67 8.71 -0.34 4.42 0 0 Z " fill="#000002" transform="translate(335,301)"/>
<path d="M0 0 C8.91 0 17.82 0 27 0 C27 4.62 27 9.24 27 14 C18.09 14 9.18 14 0 14 C0 9.38 0 4.76 0 0 Z " fill="#00070C" transform="translate(281,33)"/>
<path d="M0 0 C8.91 0 17.82 0 27 0 C27 4.62 27 9.24 27 14 C18.09 14 9.18 14 0 14 C0 9.38 0 4.76 0 0 Z " fill="#030808" transform="translate(94,33)"/>
<path d="M0 0 C0.33 0 0.66 0 1 0 C1 4.62 1 9.24 1 14 C4.96 14 8.92 14 13 14 C13 22.58 13 31.16 13 40 C9.04 40 5.08 40 1 40 C1 35.71 1 31.42 1 27 C-3.62 27 -8.24 27 -13 27 C-13 26.67 -13 26.34 -13 26 C-8.71 26 -4.42 26 0 26 C0 17.42 0 8.84 0 0 Z " fill="#37541E" transform="translate(94,167)"/>
<path d="M0 0 C8.91 0 17.82 0 27 0 C27 4.29 27 8.58 27 13 C18.09 13 9.18 13 0 13 C0 8.71 0 4.42 0 0 Z " fill="#394E26" transform="translate(134,114)"/>
<path d="M0 0 C6.93 0.495 6.93 0.495 14 1 C14 9.58 14 18.16 14 27 C9.71 27 5.42 27 1 27 C0.67 18.09 0.34 9.18 0 0 Z " fill="#C35919" transform="translate(254,354)"/>
<path d="M0 0 C4.29 0 8.58 0 13 0 C13 8.58 13 17.16 13 26 C8.71 26 4.42 26 0 26 C0 17.42 0 8.84 0 0 Z " fill="#010100" transform="translate(348,374)"/>
<path d="M0 0 C4.29 0 8.58 0 13 0 C13 8.58 13 17.16 13 26 C8.71 26 4.42 26 0 26 C0 17.42 0 8.84 0 0 Z " fill="#7340F7" transform="translate(348,248)"/>
<path d="M0 0 C4.29 0 8.58 0 13 0 C13 8.58 13 17.16 13 26 C8.71 26 4.42 26 0 26 C0 17.42 0 8.84 0 0 Z " fill="#F44F16" transform="translate(41,248)"/>
<path d="M0 0 C4.29 0 8.58 0 13 0 C13 8.58 13 17.16 13 26 C8.71 26 4.42 26 0 26 C0 17.42 0 8.84 0 0 Z " fill="#000103" transform="translate(41,87)"/>
<path d="M0 0 C4.29 0 8.58 0 13 0 C13 8.25 13 16.5 13 25 C8.71 25 4.42 25 0 25 C0 16.75 0 8.5 0 0 Z " fill="#000004" transform="translate(348,275)"/>
<path d="M0 0 C4.29 0 8.58 0 13 0 C13 8.25 13 16.5 13 25 C8.71 25 4.42 25 0 25 C0 16.75 0 8.5 0 0 Z " fill="#020001" transform="translate(41,275)"/>
<path d="M0 0 C3.96 0 7.92 0 12 0 C12 8.58 12 17.16 12 26 C8.04 26 4.08 26 0 26 C0 17.42 0 8.84 0 0 Z " fill="#F46C19" transform="translate(268,355)"/>
<path d="M0 0 C3.96 0 7.92 0 12 0 C12 8.58 12 17.16 12 26 C8.04 26 4.08 26 0 26 C0 17.42 0 8.84 0 0 Z " fill="#000001" transform="translate(362,335)"/>
<path d="M0 0 C3.96 0 7.92 0 12 0 C12 8.58 12 17.16 12 26 C8.04 26 4.08 26 0 26 C0 17.42 0 8.84 0 0 Z " fill="#000004" transform="translate(362,248)"/>
<path d="M0 0 C3.96 0 7.92 0 12 0 C12 8.58 12 17.16 12 26 C8.04 26 4.08 26 0 26 C0 17.42 0 8.84 0 0 Z " fill="#020001" transform="translate(28,248)"/>
<path d="M0 0 C3.96 0 7.92 0 12 0 C12 8.58 12 17.16 12 26 C8.04 26 4.08 26 0 26 C0 17.42 0 8.84 0 0 Z " fill="#030000" transform="translate(55,248)"/>
<path d="M0 0 C3.96 0 7.92 0 12 0 C12 8.58 12 17.16 12 26 C8.04 26 4.08 26 0 26 C0 17.42 0 8.84 0 0 Z " fill="#F54F14" transform="translate(28,221)"/>
<path d="M0 0 C3.96 0 7.92 0 12 0 C12 8.58 12 17.16 12 26 C8.04 26 4.08 26 0 26 C0 17.42 0 8.84 0 0 Z " fill="#F5F91B" transform="translate(68,114)"/>
<path d="M0 0 C3.96 0 7.92 0 12 0 C12 8.58 12 17.16 12 26 C8.04 26 4.08 26 0 26 C0 17.42 0 8.84 0 0 Z " fill="#165EF0" transform="translate(335,88)"/>
<path d="M0 0 C8.58 0 17.16 0 26 0 C26 3.96 26 7.92 26 12 C17.42 12 8.84 12 0 12 C0 8.04 0 4.08 0 0 Z " fill="#18C2F4" transform="translate(281,48)"/>
<path d="M0 0 C8.58 0 17.16 0 26 0 C26 3.96 26 7.92 26 12 C17.42 12 8.84 12 0 12 C0 8.04 0 4.08 0 0 Z " fill="#F3F71C" transform="translate(95,48)"/>
<path d="M0 0 C8.25 0 16.5 0 25 0 C25 3.96 25 7.92 25 12 C16.75 12 8.5 12 0 12 C0 8.04 0 4.08 0 0 Z " fill="#000001" transform="translate(375,322)"/>
<path d="M0 0 C3.96 0 7.92 0 12 0 C12 8.25 12 16.5 12 25 C8.04 25 4.08 25 0 25 C0 16.75 0 8.5 0 0 Z " fill="#743FFE" transform="translate(335,275)"/>
<path d="M0 0 C3.96 0 7.92 0 12 0 C12 8.25 12 16.5 12 25 C8.04 25 4.08 25 0 25 C0 16.75 0 8.5 0 0 Z " fill="#1B1C1B" transform="translate(322,275)"/>
<path d="M0 0 C3.96 0 7.92 0 12 0 C12 8.25 12 16.5 12 25 C8.04 25 4.08 25 0 25 C0 16.75 0 8.5 0 0 Z " fill="#F15019" transform="translate(55,275)"/>
<path d="M0 0 C3.96 0 7.92 0 12 0 C12 8.25 12 16.5 12 25 C8.04 25 4.08 25 0 25 C0 16.75 0 8.5 0 0 Z " fill="#FEFFFE" transform="translate(55,88)"/>
<path d="M0 0 C9.27734375 -0.09765625 9.27734375 -0.09765625 12 0 C12.33 0.33 12.66 0.66 13 1 C15.34987262 1.23527773 17.70556039 1.41386417 20.0625 1.5625 C21.35285156 1.64628906 22.64320313 1.73007812 23.97265625 1.81640625 C25.47119141 1.90728516 25.47119141 1.90728516 27 2 C27.33 5.63 27.66 9.26 28 13 C14.14 12.505 14.14 12.505 0 12 C0 8.04 0 4.08 0 0 Z " fill="#1B1C1A" transform="translate(228,47)"/>
<path d="M0 0 C4.62 0 9.24 0 14 0 C14 6.27 14 12.54 14 19 C9.38 19 4.76 19 0 19 C0 12.73 0 6.46 0 0 Z " fill="#000103" transform="translate(80,381)"/>
<path d="M0 0 C26.4 0 52.8 0 80 0 C80 4.29 80 8.58 80 13 C78.30331793 14.69668207 76.18867982 14.11968993 73.92559814 14.12442017 C73.19983582 14.12082489 72.47407349 14.11722961 71.72631836 14.11352539 C70.58493156 14.11374443 70.58493156 14.11374443 69.42048645 14.1139679 C66.89357702 14.11326862 64.36674038 14.10547555 61.83984375 14.09765625 C60.0924941 14.09579212 58.34514393 14.0943682 56.59779358 14.09336853 C51.98968066 14.08954293 47.38159905 14.07971229 42.77349854 14.06866455 C38.07491479 14.05845134 33.37632601 14.0538711 28.67773438 14.04882812 C19.45180913 14.03809005 10.22590716 14.02101313 1 14 C1 18.29 1 22.58 1 27 C0.67 27 0.34 27 0 27 C0 22.71 0 18.42 0 14 C-12.87 14 -25.74 14 -39 14 C-39 22.58 -39 31.16 -39 40 C-39.33 40 -39.66 40 -40 40 C-40 31.09 -40 22.18 -40 13 C-26.8 13 -13.6 13 0 13 C0 8.71 0 4.42 0 0 Z M1 1 C1 4.96 1 8.92 1 13 C26.74 13 52.48 13 79 13 C79 9.04 79 5.08 79 1 C53.26 1 27.52 1 1 1 Z " fill="#2D8E12" transform="translate(161,20)"/>
<path d="M0 0 C4.29 0 8.58 0 13 0 C13 6.27 13 12.54 13 19 C8.71 19 4.42 19 0 19 C0 12.73 0 6.46 0 0 Z " fill="#000000" transform="translate(188,381)"/>
<path d="M0 0 C0.33 0 0.66 0 1 0 C1.8405863 9.87608025 2.14944509 19.65506554 2.1328125 29.56640625 C2.133489 31.01741044 2.13446188 32.46841452 2.13571167 33.91941833 C2.13717192 36.93546648 2.13508836 39.95148468 2.13037109 42.9675293 C2.12466968 46.79521598 2.12796619 50.62283256 2.13394356 54.4505167 C2.13759039 57.43886322 2.13639193 60.42719364 2.13381577 63.4155407 C2.13315811 64.82545925 2.13393325 66.23537937 2.13629532 67.6452961 C2.14785727 76.47955282 1.8184453 85.20250053 1 94 C-1.84894355 94.75397865 -4.29765254 95.11170579 -7.25 95.0625 C-9.10625 95.0315625 -9.10625 95.0315625 -11 95 C-11.97915062 97.93745187 -12.10410593 99.76328201 -12.0625 102.81640625 C-12.05476563 103.74517578 -12.04703125 104.67394531 -12.0390625 105.63085938 C-12.02617187 106.59830078 -12.01328125 107.56574219 -12 108.5625 C-11.97454661 110.480413 -11.95349457 112.39839104 -11.9375 114.31640625 C-11.92589844 115.16662354 -11.91429687 116.01684082 -11.90234375 116.89282227 C-12 119 -12 119 -13 121 C-16.97713277 121.60484372 -20.98693029 121.74654297 -25 122 C-24.99214478 123.08269165 -24.99214478 123.08269165 -24.98413086 124.18725586 C-24.96342642 127.43732849 -24.95036082 130.68738728 -24.9375 133.9375 C-24.92912109 135.07380859 -24.92074219 136.21011719 -24.91210938 137.38085938 C-24.90727539 139.00024414 -24.90727539 139.00024414 -24.90234375 140.65234375 C-24.89448853 142.15269165 -24.89448853 142.15269165 -24.88647461 143.68334961 C-25 146 -25 146 -26 147 C-28.01594582 147.23427778 -30.038474 147.41336124 -32.0625 147.5625 C-33.16722656 147.64628906 -34.27195312 147.73007812 -35.41015625 147.81640625 C-36.26480469 147.87699219 -37.11945313 147.93757812 -38 148 C-38.33 151.63 -38.66 155.26 -39 159 C-39.33 159 -39.66 159 -40 159 C-40.33 154.71 -40.66 150.42 -41 146 C-36.38 146 -31.76 146 -27 146 C-27 137.42 -27 128.84 -27 120 C-22.71 120 -18.42 120 -14 120 C-14 111.09 -14 102.18 -14 93 C-9.38 93 -4.76 93 0 93 C0 62.31 0 31.62 0 0 Z " fill="#102133" transform="translate(388,154)"/>
<path d="M0 0 C0.33 0 0.66 0 1 0 C1 8.58 1 17.16 1 26 C4.96 26 8.92 26 13 26 C13 17.42 13 8.84 13 0 C13.33 0 13.66 0 14 0 C14 8.58 14 17.16 14 26 C18.29 26 22.58 26 27 26 C27 30.29 27 34.58 27 39 C48.78 39 70.56 39 93 39 C93 39.33 93 39.66 93 40 C70.89 40 48.78 40 26 40 C26 35.71 26 31.42 26 27 C22.04 27 18.08 27 14 27 C14.01160156 28.79308594 14.02320312 30.58617187 14.03515625 32.43359375 C14.04453229 34.76822813 14.05363269 37.10286363 14.0625 39.4375 C14.07087891 40.62150391 14.07925781 41.80550781 14.08789062 43.02539062 C14.09272461 44.71245117 14.09272461 44.71245117 14.09765625 46.43359375 C14.10551147 47.99678345 14.10551147 47.99678345 14.11352539 49.59155273 C14 52 14 52 13 53 C8.71 53 4.42 53 0 53 C0 44.42 0 35.84 0 27 C-4.62 27 -9.24 27 -14 27 C-14 26.67 -14 26.34 -14 26 C-9.38 26 -4.76 26 0 26 C0 17.42 0 8.84 0 0 Z M1 27 C1 35.25 1 43.5 1 52 C4.96 52 8.92 52 13 52 C13 43.75 13 35.5 13 27 C9.04 27 5.08 27 1 27 Z " fill="#703607" transform="translate(54,248)"/>
<path d="M0 0 C4.29 0 8.58 0 13 0 C13 5.94 13 11.88 13 18 C8.71 18 4.42 18 0 18 C0 12.06 0 6.12 0 0 Z " fill="#F56C18" transform="translate(281,382)"/>
<path d="M0 0 C3.96 0 7.92 0 12 0 C12 6.27 12 12.54 12 19 C8.04 19 4.08 19 0 19 C0 12.73 0 6.46 0 0 Z " fill="#F46B17" transform="translate(202,381)"/>
<path d="M0 0 C3.96 0 7.92 0 12 0 C12 6.27 12 12.54 12 19 C8.04 19 4.08 19 0 19 C0 12.73 0 6.46 0 0 Z " fill="#373F48" transform="translate(295,355)"/>
<path d="M0 0 C4.29 0 8.58 0 13 0 C13 4.29 13 8.58 13 13 C17.29 13 21.58 13 26 13 C26 13.33 26 13.66 26 14 C22.04 14 18.08 14 14 14 C14 22.25 14 30.5 14 39 C13.67 39 13.34 39 13 39 C12.67 30.75 12.34 22.5 12 14 C8.04 13.67 4.08 13.34 0 13 C0 8.71 0 4.42 0 0 Z " fill="#010615" transform="translate(335,74)"/>
<path d="M0 0 C4.62 0 9.24 0 14 0 C14 4.62 14 9.24 14 14 C9.38 14 4.76 14 0 14 C0 9.38 0 4.76 0 0 Z " fill="#7A5404" transform="translate(147,234)"/>
<path d="M0 0 C4.62 0 9.24 0 14 0 C14 4.62 14 9.24 14 14 C9.38 14 4.76 14 0 14 C0 9.38 0 4.76 0 0 Z " fill="#F7FB13" transform="translate(80,100)"/>
<path d="M0 0 C3.96 0 7.92 0 12 0 C12 0.33 12 0.66 12 1 C8.37 1 4.74 1 1 1 C1.01160156 1.92683594 1.02320313 2.85367187 1.03515625 3.80859375 C1.04417969 5.00613281 1.05320312 6.20367187 1.0625 7.4375 C1.07410156 8.63246094 1.08570313 9.82742188 1.09765625 11.05859375 C1 14 1 14 0 15 C-2.18639453 15.07258946 -4.37500389 15.08373783 -6.5625 15.0625 C-8.35880859 15.04896484 -8.35880859 15.04896484 -10.19140625 15.03515625 C-11.11824219 15.02355469 -12.04507813 15.01195312 -13 15 C-13 18.96 -13 22.92 -13 27 C-4.75 27 3.5 27 12 27 C12 27.33 12 27.66 12 28 C-0.54 28 -13.08 28 -26 28 C-26 32.29 -26 36.58 -26 41 C-30.62 41 -35.24 41 -40 41 C-40 45.29 -40 49.58 -40 54 C-40.33 54 -40.66 54 -41 54 C-41 50.04 -41 46.08 -41 42 C-44.96 42 -48.92 42 -53 42 C-53 43.65 -53 45.3 -53 47 C-53.33 47 -53.66 47 -54 47 C-54 45.02 -54 43.04 -54 41 C-49.71 41 -45.42 41 -41 41 C-41 38.69 -41 36.38 -41 34 C-40.34 34.33 -39.68 34.66 -39 35 C-39 36.65 -39 38.3 -39 40 C-33.555 39.505 -33.555 39.505 -28 39 C-27.67 35.04 -27.34 31.08 -27 27 C-23.04 26.34 -19.08 25.68 -15 25 C-14.67 21.37 -14.34 17.74 -14 14 C-9.60563789 13.14256349 -5.47427924 12.91051442 -1 13 C-1.01160156 12.31292969 -1.02320313 11.62585938 -1.03515625 10.91796875 C-1.04417969 10.01691406 -1.05320312 9.11585938 -1.0625 8.1875 C-1.07410156 7.29417969 -1.08570313 6.40085937 -1.09765625 5.48046875 C-1 3 -1 3 0 0 Z " fill="#121E29" transform="translate(388,280)"/>
<path d="M0 0 C13.53 0 27.06 0 41 0 C41.61793098 8.65103367 42 17.32692545 42 26 C49.92 26 57.84 26 66 26 C66 22.37 66 18.74 66 15 C66.33 15 66.66 15 67 15 C67 19.29 67 23.58 67 28 C62.68745917 28.02682299 58.37508293 28.04675244 54.0625 28.0625 C52.83080078 28.07087891 51.59910156 28.07925781 50.33007812 28.08789062 C48.5753418 28.09272461 48.5753418 28.09272461 46.78515625 28.09765625 C45.15912476 28.10551147 45.15912476 28.10551147 43.50024414 28.11352539 C41 28 41 28 40 27 C40 22.71 40 18.42 40 14 C26.8 14 13.6 14 0 14 C0 13.67 0 13.34 0 13 C13.2 13 26.4 13 40 13 C40 9.04 40 5.08 40 1 C26.8 1.33 13.6 1.66 0 2 C0 1.34 0 0.68 0 0 Z " fill="#472F21" transform="translate(214,327)"/>
<path d="M0 0 C4.29 0 8.58 0 13 0 C13 4.62 13 9.24 13 14 C8.71 14 4.42 14 0 14 C0 9.38 0 4.76 0 0 Z " fill="#010610" transform="translate(322,60)"/>
<path d="M0 0 C4.29 0 8.58 0 13 0 C13 4.62 13 9.24 13 14 C8.71 14 4.42 14 0 14 C0 9.38 0 4.76 0 0 Z " fill="#05090B" transform="translate(67,60)"/>
<path d="M0 0 C4.62 0 9.24 0 14 0 C14 4.29 14 8.58 14 13 C9.38 13 4.76 13 0 13 C0 8.71 0 4.42 0 0 Z " fill="#01060F" transform="translate(308,47)"/>
<path d="M0 0 C4.62 0 9.24 0 14 0 C14 4.29 14 8.58 14 13 C9.38 13 4.76 13 0 13 C0 8.71 0 4.42 0 0 Z " fill="#050A0E" transform="translate(80,47)"/>
<path d="M0 0 C13.2 0 26.4 0 40 0 C40 8.58 40 17.16 40 26 C39.01 26 38.02 26 37 26 C37 18.08 37 10.16 37 2 C25.12 2 13.24 2 1 2 C1 9.92 1 17.84 1 26 C0.67 26 0.34 26 0 26 C0 17.42 0 8.84 0 0 Z " fill="#D8CD16" transform="translate(308,374)"/>
<path d="M0 0 C4.29 0 8.58 0 13 0 C13 4.29 13 8.58 13 13 C8.71 13 4.42 13 0 13 C0 8.71 0 4.42 0 0 Z " fill="#010501" transform="translate(94,154)"/>
<path d="M0 0 C4.29 0 8.58 0 13 0 C13 4.29 13 8.58 13 13 C8.71 13 4.42 13 0 13 C0 8.71 0 4.42 0 0 Z " fill="#060A0F" transform="translate(54,74)"/>
<path d="M0 0 C4.29 0 8.58 0 13 0 C13 4.29 13 8.58 13 13 C8.71 13 4.42 13 0 13 C0 8.71 0 4.42 0 0 Z " fill="#125FFA" transform="translate(308,61)"/>
<path d="M0 0 C4.29 0 8.58 0 13 0 C13 4.29 13 8.58 13 13 C8.71 13 4.42 13 0 13 C0 8.71 0 4.42 0 0 Z " fill="#FCFCFB" transform="translate(81,61)"/>
<path d="M0 0 C3.96 0 7.92 0 12 0 C12 4.62 12 9.24 12 14 C8.04 14 4.08 14 0 14 C0 9.38 0 4.76 0 0 Z " fill="#1F2428" transform="translate(388,374)"/>
<path d="M0 0 C0.33 0 0.66 0 1 0 C1 3.63 1 7.26 1 11 C21.79 11 42.58 11 64 11 C64 8.03 64 5.06 64 2 C64.66 1.34 65.32 0.68 66 0 C66 4.29 66 8.58 66 13 C44.22 13 22.44 13 0 13 C0 8.71 0 4.42 0 0 Z " fill="#F3AC2F" transform="translate(81,274)"/>
<path d="M0 0 C4.29 0 8.58 0 13 0 C13 3.96 13 7.92 13 12 C8.71 12 4.42 12 0 12 C0 8.04 0 4.08 0 0 Z " fill="#000001" transform="translate(348,322)"/>
<path d="M0 0 C3.96 0 7.92 0 12 0 C12 4.29 12 8.58 12 13 C8.04 13 4.08 13 0 13 C0 8.71 0 4.42 0 0 Z " fill="#000001" transform="translate(362,308)"/>
<path d="M0 0 C3.96 0 7.92 0 12 0 C12 4.29 12 8.58 12 13 C8.04 13 4.08 13 0 13 C0 8.71 0 4.42 0 0 Z " fill="#010002" transform="translate(55,301)"/>
<path d="M0 0 C4.29 0 8.58 0 13 0 C13 3.96 13 7.92 13 12 C8.71 12 4.42 12 0 12 C0 8.04 0 4.08 0 0 Z " fill="#F5AD20" transform="translate(81,141)"/>
<path d="M0 0 C3.96 0 7.92 0 12 0 C12 4.29 12 8.58 12 13 C8.04 13 4.08 13 0 13 C0 8.71 0 4.42 0 0 Z " fill="#1B1C1B" transform="translate(296,126)"/>
<path d="M0 0 C3.96 0 7.92 0 12 0 C12 4.29 12 8.58 12 13 C8.04 13 4.08 13 0 13 C0 8.71 0 4.42 0 0 Z " fill="#1B1C19" transform="translate(256,60)"/>
<path d="M0 0 C12.87 0 25.74 0 39 0 C39 4.29 39 8.58 39 13 C26.13 13 13.26 13 0 13 C0 8.71 0 4.42 0 0 Z M2 1 C2 4.3 2 7.6 2 11 C13.88 11 25.76 11 38 11 C38 7.7 38 4.4 38 1 C26.12 1 14.24 1 2 1 Z " fill="#28B6DF" transform="translate(241,34)"/>
<path d="M0 0 C12.87 0 25.74 0 39 0 C39 4.29 39 8.58 39 13 C26.13 13 13.26 13 0 13 C0 8.71 0 4.42 0 0 Z M1 1 C1 4.3 1 7.6 1 11 C12.88 11 24.76 11 37 11 C37 7.7 37 4.4 37 1 C25.12 1 13.24 1 1 1 Z " fill="#4EE529" transform="translate(122,34)"/>
<path d="M0 0 C3.96 0 7.92 0 12 0 C12 3.96 12 7.92 12 12 C8.04 12 4.08 12 0 12 C0 8.04 0 4.08 0 0 Z " fill="#22262A" transform="translate(362,322)"/>
<path d="M0 0 C3.96 0 7.92 0 12 0 C12 3.96 12 7.92 12 12 C8.04 12 4.08 12 0 12 C0 8.04 0 4.08 0 0 Z " fill="#000002" transform="translate(68,315)"/>
<path d="M0 0 C3.96 0 7.92 0 12 0 C12 3.96 12 7.92 12 12 C8.04 12 4.08 12 0 12 C0 8.04 0 4.08 0 0 Z " fill="#F3F61F" transform="translate(68,75)"/>
<path d="M0 0 C3.96 0 7.92 0 12 0 C12 3.96 12 7.92 12 12 C8.04 12 4.08 12 0 12 C0 8.04 0 4.08 0 0 Z " fill="#175EED" transform="translate(322,75)"/>
<path d="M0 0 C13.53 0 27.06 0 41 0 C41 4.62 41 9.24 41 14 C49.91 14 58.82 14 68 14 C68 18.29 68 22.58 68 27 C67.67 27 67.34 27 67 27 C67 23.04 67 19.08 67 15 C58.42 15 49.84 15 41 15 C41 18.96 41 22.92 41 27 C40.67 27 40.34 27 40 27 C40 23.04 40 19.08 40 15 C31.75 15 23.5 15 15 15 C15 14.67 15 14.34 15 14 C23.25 14 31.5 14 40 14 C40 9.71 40 5.42 40 1 C27.13 1 14.26 1 1 1 C1 5.29 1 9.58 1 14 C0.67 14 0.34 14 0 14 C0 9.38 0 4.76 0 0 Z " fill="#18718A" transform="translate(240,33)"/>
<path d="M0 0 C8.58 0 17.16 0 26 0 C26 8.25 26 16.5 26 25 C22.04 25 18.08 25 14 25 C14 21.04 14 17.08 14 13 C14.33 13 14.66 13 15 13 C15 16.63 15 20.26 15 24 C18.3 24 21.6 24 25 24 C25 16.74 25 9.48 25 2 C17.41 2 9.82 2 2 2 C2 4.64 2 7.28 2 10 C5.63 10 9.26 10 13 10 C13 10.66 13 11.32 13 12 C8.71 12 4.42 12 0 12 C0 8.04 0 4.08 0 0 Z " fill="#E86F25" transform="translate(175,355)"/>
<path d="M0 0 C0.33 0 0.66 0 1 0 C1 8.91 1 17.82 1 27 C5.29 27 9.58 27 14 27 C14 27.33 14 27.66 14 28 C9.71 28 5.42 28 1 28 C1.01160156 29.79308594 1.02320313 31.58617187 1.03515625 33.43359375 C1.04453229 35.76822813 1.05363269 38.10286363 1.0625 40.4375 C1.07087891 41.62150391 1.07925781 42.80550781 1.08789062 44.02539062 C1.09111328 45.15009766 1.09433594 46.27480469 1.09765625 47.43359375 C1.10289307 48.47572021 1.10812988 49.51784668 1.11352539 50.59155273 C1 53 1 53 0 54 C-4.00220653 54.14355117 -7.99441683 54.04216403 -12 54 C-12 58.29 -12 62.58 -12 67 C-12.33 67 -12.66 67 -13 67 C-13 53.8 -13 40.6 -13 27 C-8.71 27 -4.42 27 0 27 C0 18.09 0 9.18 0 0 Z M-12 28 C-12 36.25 -12 44.5 -12 53 C-8.04 53 -4.08 53 0 53 C0 44.75 0 36.5 0 28 C-3.96 28 -7.92 28 -12 28 Z " fill="#321D67" transform="translate(347,247)"/>
<path d="M0 0 C3.96 0 7.92 0 12 0 C12 8.25 12 16.5 12 25 C8.04 25 4.08 25 0 25 C0 16.75 0 8.5 0 0 Z M2 2 C2 9.26 2 16.52 2 24 C4.64 24 7.28 24 10 24 C10 16.74 10 9.48 10 2 C7.36 2 4.72 2 2 2 Z " fill="#7145E3" transform="translate(335,275)"/>
<path d="M0 0 C7.92 0 15.84 0 24 0 C24 1.65 24 3.3 24 5 C16.08 5 8.16 5 0 5 C0 3.35 0 1.7 0 0 Z " fill="#F62A14" transform="translate(122,395)"/>
<path d="M0 0 C13.2 0 26.4 0 40 0 C40 4.29 40 8.58 40 13 C39.67 13 39.34 13 39 13 C39 9.37 39 5.74 39 2 C26.79 2 14.58 2 2 2 C2 5.3 2 8.6 2 12 C1.01 12.495 1.01 12.495 0 13 C0 8.71 0 4.42 0 0 Z " fill="#A85B2E" transform="translate(214,341)"/>
<path d="M0 0 C0.33 0 0.66 0 1 0 C1 8.58 1 17.16 1 26 C-2.96 26 -6.92 26 -11 26 C-11 32.27 -11 38.54 -11 45 C-11.33 45 -11.66 45 -12 45 C-12 38.73 -12 32.46 -12 26 C-16.29 26 -20.58 26 -25 26 C-25 21.38 -25 16.76 -25 12 C-24.67 12 -24.34 12 -24 12 C-24 16.29 -24 20.58 -24 25 C-20.04 25 -16.08 25 -12 25 C-12 17.08 -12 9.16 -12 1 C-11.67 1 -11.34 1 -11 1 C-11 8.92 -11 16.84 -11 25 C-7.37 25 -3.74 25 0 25 C0 16.75 0 8.5 0 0 Z " fill="#C45B1A" transform="translate(213,355)"/>
<path d="M0 0 C1.10698242 0.00483398 1.10698242 0.00483398 2.23632812 0.00976562 C3.33944336 0.02233398 3.33944336 0.02233398 4.46484375 0.03515625 C5.23505859 0.03966797 6.00527344 0.04417969 6.79882812 0.04882812 C8.66670155 0.06042982 10.53453401 0.07835626 12.40234375 0.09765625 C12.40234375 0.42765625 12.40234375 0.75765625 12.40234375 1.09765625 C10.46535002 1.2701072 8.52770367 1.43522794 6.58984375 1.59765625 C4.97142578 1.736875 4.97142578 1.736875 3.3203125 1.87890625 C-1.64514502 2.15614017 -6.62446542 2.09765625 -11.59765625 2.09765625 C-11.59765625 10.01765625 -11.59765625 17.93765625 -11.59765625 26.09765625 C-7.96765625 26.09765625 -4.33765625 26.09765625 -0.59765625 26.09765625 C-0.26765625 26.75765625 0.06234375 27.41765625 0.40234375 28.09765625 C-4.21765625 28.09765625 -8.83765625 28.09765625 -13.59765625 28.09765625 C-13.59765625 19.18765625 -13.59765625 10.27765625 -13.59765625 1.09765625 C-3.47265625 -0.02734375 -3.47265625 -0.02734375 0 0 Z " fill="#170403" transform="translate(294.59765625,352.90234375)"/>
<path d="M0 0 C8.91 0 17.82 0 27 0 C27 4.62 27 9.24 27 14 C26.34 14 25.68 14 25 14 C25 10.04 25 6.08 25 2 C17.41 2.33 9.82 2.66 2 3 C1.67 6.3 1.34 9.6 1 13 C4.96 13 8.92 13 13 13 C13 13.33 13 13.66 13 14 C8.71 14 4.42 14 0 14 C0 9.38 0 4.76 0 0 Z " fill="#70BC2B" transform="translate(228,60)"/>
<path d="M0 0 C4.62 0 9.24 0 14 0 C14 4.62 14 9.24 14 14 C9.38 14 4.76 14 0 14 C0 9.38 0 4.76 0 0 Z M3 2 C3 5.3 3 8.6 3 12 C6.3 12 9.6 12 13 12 C13 8.7 13 5.4 13 2 C9.7 2 6.4 2 3 2 Z " fill="#E2E431" transform="translate(80,100)"/>
<path d="M0 0 C0.33 0 0.66 0 1 0 C1 3.96 1 7.92 1 12 C9.58 12 18.16 12 27 12 C27 12.33 27 12.66 27 13 C-0.11314985 14.14984709 -0.11314985 14.14984709 -13 14 C-13 22.58 -13 31.16 -13 40 C-13.33 40 -13.66 40 -14 40 C-14.02886338 35.52084672 -14.04675187 31.04171709 -14.0625 26.5625 C-14.07087891 25.28310547 -14.07925781 24.00371094 -14.08789062 22.68554688 C-14.09111328 21.47060547 -14.09433594 20.25566406 -14.09765625 19.00390625 C-14.10289307 17.87799072 -14.10812988 16.7520752 -14.11352539 15.59204102 C-14 13 -14 13 -13 12 C-10.81360547 11.92741054 -8.62499611 11.91626217 -6.4375 11.9375 C-4.64119141 11.95103516 -4.64119141 11.95103516 -2.80859375 11.96484375 C-1.88175781 11.97644531 -0.95492187 11.98804688 0 12 C0 8.04 0 4.08 0 0 Z " fill="#222E18" transform="translate(227,47)"/>
<path d="M0 0 C4.62 0 9.24 0 14 0 C14 0.33 14 0.66 14 1 C10.04 1 6.08 1 2 1 C2 8.92 2 16.84 2 25 C5.96 25 9.92 25 14 25 C14 25.66 14 26.32 14 27 C9.38 27 4.76 27 0 27 C0 18.09 0 9.18 0 0 Z " fill="#FDF9BC" transform="translate(80,114)"/>
<path d="M0 0 C0.33 0 0.66 0 1 0 C1 4.29 1 8.58 1 13 C9.25 13 17.5 13 26 13 C26 13.33 26 13.66 26 14 C17.75 14 9.5 14 1 14 C1 17.96 1 21.92 1 26 C0.67 26 0.34 26 0 26 C0 22.04 0 18.08 0 14 C-3.96 14 -7.92 14 -12 14 C-12 17.96 -12 21.92 -12 26 C-12.33 26 -12.66 26 -13 26 C-13 22.04 -13 18.08 -13 14 C-17.29 14 -21.58 14 -26 14 C-26 13.67 -26 13.34 -26 13 C-17.42 13 -8.84 13 0 13 C0 8.71 0 4.42 0 0 Z " fill="#0E1216" transform="translate(374,308)"/>
<path d="M0 0 C4.62 0 9.24 0 14 0 C14 0.33 14 0.66 14 1 C10.04 1 6.08 1 2 1 C2.01160156 1.92683594 2.02320312 2.85367188 2.03515625 3.80859375 C2.04417969 5.00613281 2.05320312 6.20367187 2.0625 7.4375 C2.07410156 8.63246094 2.08570312 9.82742187 2.09765625 11.05859375 C2 14 2 14 1 15 C-1.01964199 15.07244053 -3.04167124 15.08377188 -5.0625 15.0625 C-6.71958984 15.04896484 -6.71958984 15.04896484 -8.41015625 15.03515625 C-9.26480469 15.02355469 -10.11945313 15.01195312 -11 15 C-10.67 18.3 -10.34 21.6 -10 25 C-6.7 25.33 -3.4 25.66 0 26 C0 26.33 0 26.66 0 27 C-3.96 27 -7.92 27 -12 27 C-12 22.38 -12 17.76 -12 13 C-8.04 13 -4.08 13 0 13 C0 8.71 0 4.42 0 0 Z " fill="#72BA31" transform="translate(107,154)"/>
<path d="M0 0 C4.62 0 9.24 0 14 0 C14 1.98 14 3.96 14 6 C9.38 6 4.76 6 0 6 C0 4.02 0 2.04 0 0 Z " fill="#D5CA1C" transform="translate(94,394)"/>
<path d="M0 0 C4.29 0 8.58 0 13 0 C13 8.58 13 17.16 13 26 C8.71 26 4.42 26 0 26 C0 25.67 0 25.34 0 25 C3.63 25 7.26 25 11 25 C11 17.41 11 9.82 11 2 C7.7 2 4.4 2 1 2 C0.67 1.34 0.34 0.68 0 0 Z " fill="#3C6814" transform="translate(228,74)"/>
<path d="M0 0 C4.29 0 8.58 0 13 0 C13 6.27 13 12.54 13 19 C12.34 19 11.68 19 11 19 C11 13.39 11 7.78 11 2 C7.7 2 4.4 2 1 2 C1 7.61 1 13.22 1 19 C0.67 19 0.34 19 0 19 C0 12.73 0 6.46 0 0 Z " fill="#260B02" transform="translate(188,381)"/>
<path d="M0 0 C8.58 0 17.16 0 26 0 C26 0.66 26 1.32 26 2 C18.08 2 10.16 2 2 2 C2 5.63 2 9.26 2 13 C1.01 13.495 1.01 13.495 0 14 C0 9.38 0 4.76 0 0 Z " fill="#7BD02E" transform="translate(135,127)"/>
<path d="M0 0 C1.11568359 -0.00128906 2.23136719 -0.00257813 3.38085938 -0.00390625 C5.14333008 0.00189453 5.14333008 0.00189453 6.94140625 0.0078125 C8.11251953 0.00394531 9.28363281 0.00007813 10.49023438 -0.00390625 C12.16569336 -0.00197266 12.16569336 -0.00197266 13.875 0 C14.9055249 0.00112793 15.9360498 0.00225586 16.99780273 0.00341797 C19.50390625 0.1328125 19.50390625 0.1328125 21.50390625 1.1328125 C21.50390625 3.1128125 21.50390625 5.0928125 21.50390625 7.1328125 C20.84390625 7.1328125 20.18390625 7.1328125 19.50390625 7.1328125 C19.50390625 5.4828125 19.50390625 3.8328125 19.50390625 2.1328125 C11.58390625 2.1328125 3.66390625 2.1328125 -4.49609375 2.1328125 C-4.49609375 3.7828125 -4.49609375 5.4328125 -4.49609375 7.1328125 C-5.15609375 7.1328125 -5.81609375 7.1328125 -6.49609375 7.1328125 C-6.53863731 5.13326504 -6.53690158 3.13239614 -6.49609375 1.1328125 C-4.75536171 -0.60791954 -2.3651774 0.00259157 0 0 Z " fill="#9E3B30" transform="translate(126.49609375,392.8671875)"/>
<path d="M0 0 C0.33 0 0.66 0 1 0 C1 4.29 1 8.58 1 13 C-7.58 13 -16.16 13 -25 13 C-25 12.34 -25 11.68 -25 11 C-17.08 11 -9.16 11 -1 11 C-1 7.7 -1 4.4 -1 1 C-0.67 0.67 -0.34 0.34 0 0 Z " fill="#3B6714" transform="translate(160,114)"/>
<path d="M0 0 C4.29 0 8.58 0 13 0 C13 4.29 13 8.58 13 13 C8.71 13 4.42 13 0 13 C0 8.71 0 4.42 0 0 Z M1 1 C1 4.3 1 7.6 1 11 C4.3 11 7.6 11 11 11 C11 7.7 11 4.4 11 1 C7.7 1 4.4 1 1 1 Z " fill="#1C5DDF" transform="translate(308,61)"/>
<path d="M0 0 C0.33 0 0.66 0 1 0 C1 4.29 1 8.58 1 13 C-7.91 13 -16.82 13 -26 13 C-22.19840121 11.09920061 -21.01795859 10.75587855 -17.015625 10.8046875 C-15.61376953 10.81435547 -15.61376953 10.81435547 -14.18359375 10.82421875 C-12.73146484 10.84935547 -12.73146484 10.84935547 -11.25 10.875 C-10.26644531 10.88402344 -9.28289062 10.89304687 -8.26953125 10.90234375 C-5.84610593 10.92587215 -3.42317778 10.95874632 -1 11 C-1.01160156 10.28972656 -1.02320312 9.57945313 -1.03515625 8.84765625 C-1.04417969 7.92855469 -1.05320312 7.00945313 -1.0625 6.0625 C-1.07410156 5.14597656 -1.08570312 4.22945312 -1.09765625 3.28515625 C-1 1 -1 1 0 0 Z " fill="#3D70A2" transform="translate(120,20)"/>
<path d="M0 0 C2.64 0 5.28 0 8 0 C8 1.32 8 2.64 8 4 C5.03 4 2.06 4 -1 4 C-0.67 2.68 -0.34 1.36 0 0 Z " fill="#FEEF01" transform="translate(97,396)"/>
</svg>
